<?xml version="1.0" encoding="us-ascii" standalone="no"?><svg xmlns="http://www.w3.org/2000/svg" xmlns:xlink="http://www.w3.org/1999/xlink" contentStyleType="text/css" height="696px" preserveAspectRatio="none" style="width:299px;height:696px;background:#1B1B1B;" version="1.1" viewBox="0 0 299 696" width="299px" zoomAndPan="magnify"><defs/><g><rect fill="#1B1B1B" height="696" style="stroke:none;stroke-width:1.0;" width="299" x="0" y="0"/><!--cluster Rede Neural--><g id="cluster_Rede Neural"><path d="M8.5,6 L105.5,6 A3.75,3.75 0 0 1 108,8.5 L115,28.2969 L289.5,28.2969 A2.5,2.5 0 0 1 292,30.7969 L292,687.22 A2.5,2.5 0 0 1 289.5,689.72 L8.5,689.72 A2.5,2.5 0 0 1 6,687.22 L6,8.5 A2.5,2.5 0 0 1 8.5,6 " fill="none" style="stroke:#FFFFFF;stroke-width:1.5;"/><line style="stroke:#FFFFFF;stroke-width:1.5;" x1="6" x2="115" y1="28.2969" y2="28.2969"/><text fill="#FFFFFF" font-family="sans-serif" font-size="14" font-weight="bold" lengthAdjust="spacing" textLength="96" x="10" y="20.9951">Rede Neural</text></g><!--cluster Camada de Entrada--><g id="cluster_Camada de Entrada"><path d="M32.5,49 L191.5,49 A3.75,3.75 0 0 1 194,51.5 L201,71.2969 L265.5,71.2969 A2.5,2.5 0 0 1 268,73.7969 L268,287.22 A2.5,2.5 0 0 1 265.5,289.72 L32.5,289.72 A2.5,2.5 0 0 1 30,287.22 L30,51.5 A2.5,2.5 0 0 1 32.5,49 " fill="none" style="stroke:#FFFFFF;stroke-width:1.5;"/><line style="stroke:#FFFFFF;stroke-width:1.5;" x1="30" x2="201" y1="71.2969" y2="71.2969"/><text fill="#FFFFFF" font-family="sans-serif" font-size="14" font-weight="bold" lengthAdjust="spacing" textLength="158" x="34" y="63.9951">Camada de Entrada</text></g><!--cluster input--><g id="cluster_input"><rect fill="none" height="157.72" rx="2.5" ry="2.5" style="stroke:#E7E7E7;stroke-width:1.0;" width="174" x="62" y="100"/><path d="M230,100 L230,109.2969 L220,119.2969 L62,119.2969 " fill="none" style="stroke:#E7E7E7;stroke-width:1.0;"/><text fill="#FFFFFF" font-family="sans-serif" font-size="14" font-weight="bold" lengthAdjust="spacing" textLength="158" x="65" y="113.9951">Camada de Entrada</text></g><!--cluster Camada Oculta--><g id="cluster_Camada Oculta"><path d="M52.5,313.72 L177.5,313.72 A3.75,3.75 0 0 1 180,316.22 L187,336.0169 L245.5,336.0169 A2.5,2.5 0 0 1 248,338.5169 L248,475.22 A2.5,2.5 0 0 1 245.5,477.72 L52.5,477.72 A2.5,2.5 0 0 1 50,475.22 L50,316.22 A2.5,2.5 0 0 1 52.5,313.72 " fill="none" style="stroke:#FFFFFF;stroke-width:1.5;"/><line style="stroke:#FFFFFF;stroke-width:1.5;" x1="50" x2="187" y1="336.0169" y2="336.0169"/><text fill="#FFFFFF" font-family="sans-serif" font-size="14" font-weight="bold" lengthAdjust="spacing" textLength="124" x="54" y="328.7151">Camada Oculta</text></g><!--cluster hidden--><g id="cluster_hidden"><rect fill="none" height="97" rx="2.5" ry="2.5" style="stroke:#E7E7E7;stroke-width:1.0;" width="150" x="74" y="356.72"/><path d="M208,356.72 L208,366.0169 L198,376.0169 L74,376.0169 " fill="none" style="stroke:#E7E7E7;stroke-width:1.0;"/><text fill="#FFFFFF" font-family="sans-serif" font-size="14" font-weight="bold" lengthAdjust="spacing" textLength="124" x="77" y="370.7151">Camada Oculta</text></g><!--cluster Camada de Sa?da--><g id="cluster_Camada de Sa&#237;da"><path d="M33.5,501.72 L173.5,501.72 A3.75,3.75 0 0 1 176,504.22 L183,524.0169 L264.5,524.0169 A2.5,2.5 0 0 1 267,526.5169 L267,663.22 A2.5,2.5 0 0 1 264.5,665.72 L33.5,665.72 A2.5,2.5 0 0 1 31,663.22 L31,504.22 A2.5,2.5 0 0 1 33.5,501.72 " fill="none" style="stroke:#FFFFFF;stroke-width:1.5;"/><line style="stroke:#FFFFFF;stroke-width:1.5;" x1="31" x2="183" y1="524.0169" y2="524.0169"/><text fill="#FFFFFF" font-family="sans-serif" font-size="14" font-weight="bold" lengthAdjust="spacing" textLength="139" x="35" y="516.7151">Camada de Sa&#237;da</text></g><!--cluster output--><g id="cluster_output"><rect fill="none" height="97" rx="2.5" ry="2.5" style="stroke:#E7E7E7;stroke-width:1.0;" width="188" x="55" y="544.72"/><path d="M204,544.72 L204,554.0169 L194,564.0169 L55,564.0169 " fill="none" style="stroke:#E7E7E7;stroke-width:1.0;"/><text fill="#FFFFFF" font-family="sans-serif" font-size="14" font-weight="bold" lengthAdjust="spacing" textLength="139" x="58" y="558.7151">Camada de Sa&#237;da</text></g><!--entity Grau Celsius--><g id="elem_Grau Celsius"><rect fill="#313139" height="46.2969" rx="2.5" ry="2.5" style="stroke:#E7E7E7;stroke-width:0.5;" width="126" x="86" y="187.72"/><rect fill="#313139" height="10" style="stroke:#E7E7E7;stroke-width:0.5;" width="15" x="192" y="192.72"/><rect fill="#313139" height="2" style="stroke:#E7E7E7;stroke-width:0.5;" width="4" x="190" y="194.72"/><rect fill="#313139" height="2" style="stroke:#E7E7E7;stroke-width:0.5;" width="4" x="190" y="198.72"/><text fill="#FFFFFF" font-family="sans-serif" font-size="14" lengthAdjust="spacing" textLength="86" x="101" y="220.7151">Grau Celsius</text></g><!--entity Neur?nio 1--><g id="elem_Neur&#244;nio 1"><rect fill="#313139" height="46.2969" rx="2.5" ry="2.5" style="stroke:#E7E7E7;stroke-width:0.5;" width="117" x="90.5" y="391.72"/><rect fill="#313139" height="10" style="stroke:#E7E7E7;stroke-width:0.5;" width="15" x="187.5" y="396.72"/><rect fill="#313139" height="2" style="stroke:#E7E7E7;stroke-width:0.5;" width="4" x="185.5" y="398.72"/><rect fill="#313139" height="2" style="stroke:#E7E7E7;stroke-width:0.5;" width="4" x="185.5" y="402.72"/><text fill="#FFFFFF" font-family="sans-serif" font-size="14" lengthAdjust="spacing" textLength="77" x="105.5" y="424.7151">Neur&#244;nio 1</text></g><!--entity Grau Fahrenheit--><g id="elem_Grau Fahrenheit"><rect fill="#313139" height="46.2969" rx="2.5" ry="2.5" style="stroke:#E7E7E7;stroke-width:0.5;" width="155" x="71.5" y="579.72"/><rect fill="#313139" height="10" style="stroke:#E7E7E7;stroke-width:0.5;" width="15" x="206.5" y="584.72"/><rect fill="#313139" height="2" style="stroke:#E7E7E7;stroke-width:0.5;" width="4" x="204.5" y="586.72"/><rect fill="#313139" height="2" style="stroke:#E7E7E7;stroke-width:0.5;" width="4" x="204.5" y="590.72"/><text fill="#FFFFFF" font-family="sans-serif" font-size="14" lengthAdjust="spacing" textLength="115" x="86.5" y="612.7151">Grau Fahrenheit</text></g><!--link input to Grau Celsius--><g id="link_input_Grau Celsius"><path d="M149,127.779 C149,129.285 149,159.103 149,182.339 " fill="none" id="input-to-Grau Celsius" style="stroke:#E7E7E7;stroke-width:1.0;"/><polygon fill="#E7E7E7" points="149,187.482,153,178.482,149,182.482,145,178.482,149,187.482" style="stroke:#E7E7E7;stroke-width:1.0;"/></g><!--link Grau Celsius to Neur?nio 1--><g id="link_Grau Celsius_Neur&#244;nio 1"><path d="M149,233.722 C149,270.811 149,345.686 149,386.196 " fill="none" id="Grau Celsius-to-Neur&#244;nio 1" style="stroke:#E7E7E7;stroke-width:1.0;"/><polygon fill="#E7E7E7" points="149,391.438,153,382.438,149,386.438,145,382.438,149,391.438" style="stroke:#E7E7E7;stroke-width:1.0;"/></g><!--link Neur?nio 1 to Grau Fahrenheit--><g id="link_Neur&#244;nio 1_Grau Fahrenheit"><path d="M149,437.787 C149,471.906 149,537.386 149,574.43 " fill="none" id="Neur&#244;nio 1-to-Grau Fahrenheit" style="stroke:#E7E7E7;stroke-width:1.0;"/><polygon fill="#E7E7E7" points="149,579.682,153,570.682,149,574.682,145,570.682,149,579.682" style="stroke:#E7E7E7;stroke-width:1.0;"/></g><!--SRC=[ZP1D3e8m48NtFSM4FGizW1kYxZIHfN4neQCqb9QKTc4CHtBd3RYOHO91VjHPDCsyb_doNfa9LQ3171AT5rgHih6zIWANooLZ1IOPNWY20t627Jc3Ce0R0pzdBJaP22BCaIDuVQsiyT_Ey3BvqpJfmH8ysjcUkPdZrg23Y6GfN7bwInLhtodoFd7IVg5skYUcWdDIGsIJgtueeM7n7z7dYB6-_uZQMJnNEpiNTOEf8PMIi3FijgKmN0sxOUE-MjiepyUcTwhFhfu0]--></g></svg>